<svg id="Group_3322" data-name="Group 3322" xmlns="http://www.w3.org/2000/svg" xmlns:xlink="http://www.w3.org/1999/xlink" width="191" height="49.544" viewBox="0 0 191 49.544">
  <defs>
    <clipPath id="clip-path">
      <rect id="Rectangle_1222" data-name="Rectangle 1222" width="191" height="49.544" fill="#498285"/>
    </clipPath>
  </defs>
  <g id="Group_3321" data-name="Group 3321" clip-path="url(#clip-path)">
    <path id="Path_7081" data-name="Path 7081" d="M810.884,213.7c-.028-.383-.328-.222-.507-.226-.888-.018-1.777-.028-2.664,0-.427.013-.576-.11-.576-.557,0-1.2-.02-1.195,1.179-1.194,1.31,0,2.62.014,3.93-.008.4-.007.543.117.54.527-.017,2.131.016,4.263-.019,6.394A4.466,4.466,0,0,1,810.162,223a5.336,5.336,0,0,1-5.671-.536,4.425,4.425,0,0,1-1.664-3.424c-.021-.278.06-.429.355-.423.089,0,.178,0,.266,0,1.047-.012,1.047-.012,1.305.971.445,1.694,1.767,2.454,3.717,2.137a2.9,2.9,0,0,0,2.413-3.23q0-2.4,0-4.8" transform="translate(-660.048 -174.062)" fill="#498285"/>
    <path id="Path_7082" data-name="Path 7082" d="M421.822,90.881a.482.482,0,0,0-.112-.316c.037.105.075.211.112.316" transform="translate(-346.712 -74.459)" fill="#498285"/>
    <path id="Path_7083" data-name="Path 7083" d="M401.453,10.913v.673c0,6.7.007,13.4-.013,20.1,0,.6.133.8.763.78,1.374-.05,2.751-.013,4.126-.017.256,0,.545.079.719-.212h0c-.011-.177-.032-.353-.032-.53q0-14.093,0-28.186c0-.177.021-.353.033-.53-.11-.247-.319-.262-.554-.262-2.131,0-4.261.015-6.392-.006-.51-.005-.666.251-.816.675q-3.851,10.861-7.728,21.71a.223.223,0,0,1-.24-.181c-1.011-2.972-2.143-5.9-3.069-8.905h0l.007.008h0c-.723-1.666-1.238-3.407-1.848-5.113-.917-2.565-1.805-5.141-2.7-7.715a.625.625,0,0,0-.683-.482c-2.153.014-4.307.027-6.46,0-.661-.01-.564.388-.564.785q0,13.42,0,26.84c0,.533.014,1.066,0,1.6-.012.359.1.521.487.517,1.532-.016,3.064-.01,4.6,0,.335,0,.5-.125.479-.47-.01-.177,0-.355,0-.533q0-9.89,0-19.78v-.85l.124-.02,4.186,12.012a1.883,1.883,0,0,1,.394,1.207c.892,2.594,1.8,5.183,2.665,7.786a.811.811,0,0,0,.95.658c1.107-.043,2.219-.05,3.325,0,.533.023.73-.2.887-.654q2.783-8.134,5.6-16.257a3.28,3.28,0,0,1,.172-.356.088.088,0,0,1,.019-.111l1.4-4.19.175.016" transform="translate(-309.127 -2.235)" fill="#498285"/>
    <path id="Path_7084" data-name="Path 7084" d="M326.314,88.06a1.445,1.445,0,0,1-.078-.15.2.2,0,0,0,.078.15" transform="translate(-268.217 -72.276)" fill="#498285"/>
    <path id="Path_7085" data-name="Path 7085" d="M194.458,2.046a16.25,16.25,0,0,0-5.871,5.945c-.261.439-.174.635.279.839,1.272.574,2.543,1.156,3.774,1.811.542.288.747.138,1.019-.324A9.785,9.785,0,0,1,198.968,5.9a9.164,9.164,0,0,1,5.5-.256,8.673,8.673,0,0,1,4.912,2.823,9.522,9.522,0,0,1,2.7,7.316c0,.043,0,.085,0,.127a9.9,9.9,0,0,1-4.985,8.305,9.131,9.131,0,0,1-8.42.716,2.105,2.105,0,0,1-.338-.2,3.045,3.045,0,0,0-1.084-.545l-.126-.085a2.96,2.96,0,0,0-.962-.706l-.105-.084c-.015-.1-.148-.159-.136-.269a1.726,1.726,0,0,1-.513-.478q-.24-.232-.458-.482a.714.714,0,0,1-.429-.54q-.1-.134-.19-.273c-.091-.031-.169-.122-.26-.154a2.087,2.087,0,0,1-.386-.532c-.286-.907-.913-1.079-1.786-1.03-1.284.072-2.574.018-3.862.019-.851,0-.865.006-.58.832a15.23,15.23,0,0,0,7.406,8.711,15.066,15.066,0,0,0,13.655.509,15.241,15.241,0,0,0,9.033-15.913c-.031-.24-.023-.485-.033-.728l-.025-.038.022-.04a18.324,18.324,0,0,0-1.443-4.326c-2.78-5.052-6.91-8.08-12.761-8.545a27.236,27.236,0,0,0-4.036.17h0L199.28.2A19.268,19.268,0,0,0,195.4,1.524c-.3.2-.646.318-.944.522" transform="translate(-153.978 0)" fill="#498285"/>
    <path id="Path_7086" data-name="Path 7086" d="M23.563,34.438c-.084-.675.129-1.351-.014-2.025a6.034,6.034,0,0,0-1.007-1.542c-.678-.988-1.365-1.97-2.074-2.937a3.185,3.185,0,0,0-3.746-1.27,3.281,3.281,0,0,0-2.22,3.221c.006.633-.288,1.445.135,1.853.389.375,1.186.091,1.8.11.577.018,1.155,0,1.732,0a1.011,1.011,0,0,1,1.145,1.141,5.809,5.809,0,0,1,0,.6c-.03.378.015.63.511.617.393-.01.552.273.548.678,0,.512-.372.346-.615.347q-4.731.014-9.462,0c-1,0-1.361-.359-1.365-1.361-.005-1.088-.022-2.176.009-3.263.014-.486-.148-.606-.617-.562a9.881,9.881,0,0,0-2.279.444,2.936,2.936,0,0,0-2.05,3.612,11.934,11.934,0,0,0,1.028,2.72c.048.214-.108.172-.225.18-.441-.143-.659-.541-.961-.842L3.7,36.012c-.142-.168-.251-.361-.391-.53l-.275-.4a.971.971,0,0,1-.1-.147,3.035,3.035,0,0,0-.218-.579.715.715,0,0,1-.059-.171c.006-.132-.072-.251-.065-.326a2.775,2.775,0,0,0,.155.688,1.345,1.345,0,0,1,.052.273,2.736,2.736,0,0,0,.092.818c0,.1,0,.2.106.262a19.79,19.79,0,0,0,1.1,1.884,4.935,4.935,0,0,0,2,1.712,9.072,9.072,0,0,0,3.931,1.294,26.726,26.726,0,0,0,10.327-.981.739.739,0,0,1,.5-.034,5.328,5.328,0,0,1-1.454,1.1c-4.278,2.526-8.787,3.264-13.521,1.511A8.839,8.839,0,0,1,.057,32.82c.429-4.19,2.785-7.031,6.184-9.184a17.542,17.542,0,0,1,2.111-1.122.893.893,0,0,0,.592-.96c-.018-5.994,0-11.988-.029-17.981,0-.693.2-.872.864-.849,1.33.047,2.665.048,3.995,0,.613-.022.736.2.733.762-.023,3.685-.012,7.37-.012,11.055v.712l.157.075c1.064-1.5,2.194-2.951,3.184-4.506q2.039-2.792,4.077-5.584c.5-.681,1-1.357,1.467-2.059a.938.938,0,0,1,.89-.447c1.776.013,3.552,0,5.329.009.193,0,.457-.088.549.119s-.147.348-.264.5Q25.223,9.431,20.558,15.5c-.162.211-.308.433-.462.649a.966.966,0,0,0-.221.526.885.885,0,0,0,.492-.12c1.56-.74,3.141-1.44,4.675-2.23a15.115,15.115,0,0,1,7.239-1.3,11.1,11.1,0,0,1,5.094,1.19,10.116,10.116,0,0,0,3.375,1.146l0,0a2.234,2.234,0,0,1,1.865,3.1,1.94,1.94,0,0,1-2.3,1.172c-.813-.114-1.625.042-2.426-.127a.418.418,0,0,1-.29-.177c-1.265-.321-2.566-.479-3.815-.884a27.752,27.752,0,0,1-3.3-1.387,5.873,5.873,0,0,0,2.083,2.332c.157.11.436.153.428.37s-.284.226-.455.308a17.8,17.8,0,0,0-6.633,5.518.608.608,0,0,0-.019.87c1.2,1.591,2.384,3.2,3.561,4.814a.918.918,0,0,0,.832.433c.8-.02,1.6-.008,2.4,0,.931.007,1.288.365,1.294,1.284,0,.2.008.4,0,.6-.014.3.013.517.414.5.429-.014.651.234.63.673-.024.485-.4.324-.651.325-3.2.01-6.391-.006-9.586.018a1.516,1.516,0,0,1-1.213-.668" transform="translate(0 -2.238)" fill="#498285"/>
    <path id="Path_7087" data-name="Path 7087" d="M1008.439,212.539a3.583,3.583,0,0,1,3.2-2.6,5.841,5.841,0,0,1,5.282,1.288c.358.408.186.633-.215.914a1.013,1.013,0,0,1-1.5,0,3.761,3.761,0,0,0-3.911-.4,1.454,1.454,0,0,0-1.026,1.481c.031.719.536,1.038,1.126,1.242,1.137.394,2.359.4,3.513.726a3.442,3.442,0,0,1,2.8,2.531,3.2,3.2,0,0,1-1.718,3.624,7.1,7.1,0,0,1-5.872.124,4.305,4.305,0,0,1-1.891-1.625c-.217-.308-.248-.5.12-.741.884-.58.871-.6,1.606.12a4.621,4.621,0,0,0,5.026.708,1.6,1.6,0,0,0,.912-1.511,1.549,1.549,0,0,0-1.094-1.449,26.566,26.566,0,0,0-3.441-.729c-1.345-.346-2.536-.894-2.846-2.436a8.686,8.686,0,0,1-.074-1.257" transform="translate(-828.791 -172.49)" fill="#498285"/>
    <path id="Path_7088" data-name="Path 7088" d="M637.346,38.429a.186.186,0,0,0,.043-.006,1.247,1.247,0,0,1-.183-.062.157.157,0,0,0,.14.068" transform="translate(-523.883 -31.539)" fill="#498285"/>
    <path id="Path_7089" data-name="Path 7089" d="M597.922,99.982s0,.009,0,.013l0,0,0-.011" transform="translate(-491.585 -82.201)" fill="#498285"/>
    <path id="Path_7090" data-name="Path 7090" d="M594.869,19.107a15.8,15.8,0,0,0-.057-7.315,3.076,3.076,0,0,1-.044-.392l0,0a17.377,17.377,0,0,0-1.83-4.078c-.4-.6-.826-1.186-1.241-1.778h0a19.05,19.05,0,0,0-4.652-3.779A20.422,20.422,0,0,0,582.783.209v0a20.316,20.316,0,0,0-4.349-.136c-.5.044-1.009.089-1.513.134h0a.1.1,0,0,1-.123.012A18.539,18.539,0,0,0,572,2.049a27.219,27.219,0,0,0-3.056,2.3,17.638,17.638,0,0,0-3.42,5.016A15.427,15.427,0,0,0,570.371,27.8a21.405,21.405,0,0,0,4.206,2.373h0l.044-.016.038.028a19.659,19.659,0,0,0,5.3.782,15.5,15.5,0,0,0,14.911-11.857m-24.637-.859a.378.378,0,0,1,.013-.13v0a8.8,8.8,0,0,1,.005-5.555,9.937,9.937,0,0,1,7.064-6.886,1.9,1.9,0,0,1,.394-.031A9.093,9.093,0,0,1,585.2,6.969a10.139,10.139,0,0,1,1.035,16.087.562.562,0,0,1-.116.062h0a8.811,8.811,0,0,1-5.584,2.468c-5.145.48-9.237-3.458-10.3-7.337" transform="translate(-463.931 -0.012)" fill="#498285"/>
    <path id="Path_7091" data-name="Path 7091" d="M1034.47,113.57h0" transform="translate(-850.496 -93.372)" fill="#498285"/>
    <path id="Path_7092" data-name="Path 7092" d="M1012.2,135.6a1.026,1.026,0,0,1,.1-.026c-.032,0-.06-.01-.089-.015a.139.139,0,0,1-.012.041" transform="translate(-832.188 -111.447)" fill="#498285"/>
    <path id="Path_7093" data-name="Path 7093" d="M929.315,10.775a15.348,15.348,0,0,0-5.163-7.509,7.027,7.027,0,0,0-2.525-1.56l-.121-.037A23.815,23.815,0,0,0,917.5.238h0a.092.092,0,0,1-.12-.013,19.535,19.535,0,0,0-5.488,0,15.157,15.157,0,0,0-9.711,5.745,19.177,19.177,0,0,0-2.386,4.121h0l.005-.005a7.055,7.055,0,0,0-.871,3.138,19.476,19.476,0,0,0,0,4.722,3.686,3.686,0,0,0,.1.792,15.4,15.4,0,0,0,5.925,9.257,15.328,15.328,0,0,0,11.912,2.972,14.183,14.183,0,0,0,6.2-2.42,15.841,15.841,0,0,0,5.668-6.644,14.721,14.721,0,0,0,1.193-5.546,16.882,16.882,0,0,0-.6-5.578M916.587,25.351a9.3,9.3,0,0,1-9.743-3.389,9.849,9.849,0,0,1-2.263-8.125,1.711,1.711,0,0,1,.106-.309.1.1,0,0,1,.014-.122,4.017,4.017,0,0,1,.531-1.757A9.876,9.876,0,0,1,922.479,9.57a3.055,3.055,0,0,1,.24.466h0a8.456,8.456,0,0,1,1.579,4.782,10.205,10.205,0,0,1-7.71,10.532" transform="translate(-738.941 -0.025)" fill="#498285"/>
    <path id="Path_7094" data-name="Path 7094" d="M811.107,38.1h0c.026.005.017,0,0,0" transform="translate(-666.856 -31.323)" fill="#498285"/>
    <path id="Path_7095" data-name="Path 7095" d="M811.493,38.147l.06.011a.66.66,0,0,0-.338-.073.9.9,0,0,1,.278.062" transform="translate(-666.946 -31.309)" fill="#498285"/>
    <path id="Path_7096" data-name="Path 7096" d="M777.985,25.731c.116-.181.17-.407.371-.529a24.381,24.381,0,0,0,1.534-4.233,15.365,15.365,0,0,0-6.042-15.7A16.282,16.282,0,0,0,766.217,3c-3.029-.308-6.071-.25-9.11-.269-.67,0-.619.362-.619.8q.006,12.424,0,24.848c0,1.132.031,2.266-.013,3.4-.022.574.184.7.721.695,2.841-.042,5.682-.048,8.523-.067l.348,0c1.113-.164,2.234-.284,3.336-.5a12.924,12.924,0,0,0,8.577-6.174m-13.549,1.323c-.641.037-1.286.017-1.928.05-.411.021-.575-.148-.532-.546a1.24,1.24,0,0,0,0-.133c0-5.834.008-11.668-.01-17.5,0-.578.151-.78.747-.755a18.928,18.928,0,0,1,6.474.928,1.969,1.969,0,0,1,.692.377,6.15,6.15,0,0,1,2.522,2.011,3.212,3.212,0,0,1,.947,1.337,7.414,7.414,0,0,1,1.172,3.068,9.016,9.016,0,0,1-1.177,6.694,8.175,8.175,0,0,1-3.972,3.568,13.058,13.058,0,0,1-4.935.9" transform="translate(-621.943 -2.246)" fill="#498285"/>
    <path id="Path_7097" data-name="Path 7097" d="M888.192,106.815q.048-.208.092-.418a.753.753,0,0,0-.092.418" transform="translate(-730.233 -87.475)" fill="#498285"/>
    <path id="Path_7098" data-name="Path 7098" d="M954.8,217.343c1.654-1.449,1.9-3.2.634-4.52a3.915,3.915,0,0,0-2.908-1.1c-1.708-.027-3.417,0-5.125-.017-.414-.005-.523.129-.521.529q.02,5.292,0,10.583c0,.482.2.529.593.526,1.664-.015,3.328-.008,4.992-.007a7,7,0,0,0,1.583-.184,3.069,3.069,0,0,0,.755-5.807m-6.045-3.552c0-.359.185-.449.5-.445,1.04.009,2.082-.02,3.121.017a2.084,2.084,0,0,1,1.647.731,1.378,1.378,0,0,1-.744,2.29,10.352,10.352,0,0,1-2.249.119c-.684,0-1.238-.016-1.791.005-.391.015-.571-.112-.549-.528.038-.728.056-1.459.062-2.188m5.967,6.307a1.427,1.427,0,0,1-1.023,1.266,8.767,8.767,0,0,1-2.745.23c-.673-.1-1.6.312-2.063-.166-.428-.441-.12-1.351-.124-2.054-.006-1.319-.189-1.165,1.15-1.174.82-.005,1.64,0,2.46,0a2.871,2.871,0,0,1,1.573.451,1.514,1.514,0,0,1,.771,1.447" transform="translate(-778.484 -174.053)" fill="#498285"/>
    <path id="Path_7099" data-name="Path 7099" d="M875.376,210.77a5.859,5.859,0,0,0-6,6.11,6,6,0,0,0,11.995-.061,5.71,5.71,0,0,0-6-6.048m2.363,9.756a4.245,4.245,0,0,1-6.471-4.446,2.574,2.574,0,0,1,.466-1.433h0a3.633,3.633,0,0,1,3.5-2.185,3.928,3.928,0,0,1,4.1,2.926,4.4,4.4,0,0,1-1.6,5.138" transform="translate(-714.765 -173.286)" fill="#498285"/>
  </g>
</svg>
