<svg id="Capa_1" enable-background="new 0 0 512 512" height="40" viewBox="0 0 512 512" width="40" xmlns="http://www.w3.org/2000/svg"><g><path d="m331.526 425.94c-33.054-33.053-75.526-38.605-75.526-38.605s5.551 42.472 38.605 75.526c19.736 19.736 43.823 30.66 60.029 36.258 8.162 2.82 15.97-4.988 13.15-13.15-5.598-16.205-16.522-40.292-36.258-60.029z" fill="#66b394"/><path d="m180.474 425.94c33.054-33.053 75.526-38.605 75.526-38.605s-5.551 42.472-38.605 75.526c-19.736 19.736-43.823 30.66-60.029 36.258-8.162 2.82-15.97-4.988-13.15-13.15 5.598-16.205 16.522-40.292 36.258-60.029z" fill="#66b394"/><path d="m130.66 346.789c72.6 0 125.34 40.546 125.34 40.546s-52.74 40.546-125.34 40.546c-50.364 0-94.112-19.512-116.187-31.465-7.212-3.905-7.212-14.257 0-18.162 22.075-11.953 65.823-31.465 116.187-31.465z" fill="#95d6a4"/><path d="m256 387.335s-52.74-40.546-125.34-40.546c-7.78 0-15.4.468-22.808 1.3 44.856 33.373 91.018 49.337 118.941 56.568 18.462-9.063 29.207-17.322 29.207-17.322z" fill="#78c2a4"/><g><path d="m256 395.086h-100.212c-4.28 0-7.75-3.47-7.75-7.75s3.47-7.75 7.75-7.75h100.212c4.28 0 7.75 3.47 7.75 7.75s-3.47 7.75-7.75 7.75z" fill="#5aa687"/></g><path d="m171.206 221.449c72.6 72.6 84.794 165.887 84.794 165.887s-93.286-12.193-165.887-84.794c-54.422-54.422-78.336-123.904-86.9-155.287-2.111-7.736 4.97-14.817 12.706-12.706 31.383 8.563 100.865 32.477 155.287 86.9z" fill="#b3e59f"/><path d="m171.614 221.863c6.146 71.954 34.378 128.843 51.953 158.051 19.703 5.753 32.433 7.421 32.433 7.421s-12.152-92.932-84.386-165.472z" fill="#95d6a4"/><path d="m261.48 381.855-82.284-82.284v-21.843c0-4.28-3.47-7.75-7.75-7.75s-7.75 3.47-7.75 7.75v6.342l-16.859-16.859v-21.843c0-4.28-3.47-7.75-7.75-7.75s-7.75 3.47-7.75 7.75v6.343l-29.047-29.047c-3.026-3.026-7.934-3.026-10.96 0-3.027 3.026-3.027 7.934 0 10.96l29.047 29.047h-6.343c-4.28 0-7.75 3.47-7.75 7.75s3.47 7.75 7.75 7.75h21.843l16.859 16.859h-6.342c-4.28 0-7.75 3.47-7.75 7.75s3.47 7.75 7.75 7.75h21.843l82.284 82.284c1.513 1.513 3.497 2.27 5.48 2.27s3.967-.757 5.48-2.27c3.026-3.025 3.026-7.933-.001-10.959z" fill="#5aa687"/><path d="m381.34 346.789c-72.6 0-125.34 40.546-125.34 40.546s52.74 40.546 125.34 40.546c50.364 0 94.112-19.512 116.187-31.465 7.212-3.905 7.212-14.257 0-18.162-22.075-11.953-65.823-31.465-116.187-31.465z" fill="#95d6a4"/><path d="m256 387.335s52.74-40.546 125.34-40.546c7.78 0 15.4.468 22.808 1.3-44.856 33.373-91.018 49.337-118.941 56.568-18.462-9.063-29.207-17.322-29.207-17.322z" fill="#78c2a4"/><path d="m340.794 221.449c-72.601 72.6-84.794 165.886-84.794 165.886s93.286-12.193 165.887-84.794c54.422-54.422 78.336-123.904 86.9-155.287 2.111-7.736-4.97-14.817-12.706-12.706-31.383 8.564-100.865 32.478-155.287 86.901z" fill="#b3e59f"/><path d="m340.386 221.863c-6.146 71.954-34.378 128.843-51.953 158.051-19.703 5.753-32.433 7.421-32.433 7.421s12.152-92.932 84.386-165.472z" fill="#95d6a4"/><path d="m420.672 222.663c-3.026-3.026-7.934-3.026-10.96 0l-29.047 29.047v-6.343c0-4.28-3.47-7.75-7.75-7.75s-7.75 3.47-7.75 7.75v21.843l-16.859 16.859v-6.342c0-4.28-3.47-7.75-7.75-7.75s-7.75 3.47-7.75 7.75v21.843l-82.284 82.284c-3.027 3.026-3.027 7.934 0 10.96 1.513 1.513 3.497 2.27 5.48 2.27s3.967-.757 5.48-2.27l82.284-82.284h21.843c4.28 0 7.75-3.47 7.75-7.75s-3.47-7.75-7.75-7.75h-6.342l16.859-16.859h21.843c4.28 0 7.75-3.47 7.75-7.75s-3.47-7.75-7.75-7.75h-6.343l29.047-29.047c3.026-3.027 3.026-7.934-.001-10.961z" fill="#5aa687"/><g><path d="m356.212 395.086h-100.212c-4.28 0-7.75-3.47-7.75-7.75s3.47-7.75 7.75-7.75h100.212c4.28 0 7.75 3.47 7.75 7.75s-3.469 7.75-7.75 7.75z" fill="#5aa687"/></g><path d="m318.633 193.72c0 92.399-42.517 163.972-57.491 186.314-2.45 3.656-7.834 3.656-10.284 0-14.973-22.341-57.491-93.915-57.491-186.314 0-85.448 36.361-158.569 53.674-188.542 3.988-6.904 13.93-6.904 17.918 0 17.313 29.973 53.674 103.094 53.674 188.542z" fill="#ccf49f"/><path d="m288.795 53.649c4.931 30.629 7.056 64.702 3.331 100.101-8.391 79.738-43.939 142.429-68.252 177.031 15.923 35.469 32.126 56.554 32.126 56.554s62.633-81.468 62.633-193.615c0-54.307-14.688-103.635-29.838-140.071z" fill="#b3e59f"/><path d="m284.463 216.406c3.03-3.023 3.035-7.931.011-10.96-3.024-3.03-7.931-3.034-10.96-.011l-9.764 9.744v-22.965l20.713-20.671c3.03-3.023 3.035-7.931.011-10.96s-7.931-3.035-10.96-.011l-9.764 9.744v-42.904c0-4.28-3.47-7.75-7.75-7.75s-7.75 3.47-7.75 7.75v42.904l-9.764-9.744c-3.03-3.024-7.938-3.019-10.96.011-3.024 3.029-3.019 7.937.011 10.96l20.713 20.671v22.965l-9.764-9.744c-3.03-3.024-7.938-3.019-10.96.011-3.024 3.029-3.019 7.937.011 10.96l20.713 20.671v22.965l-9.764-9.744c-3.03-3.024-7.938-3.019-10.96.011-3.024 3.029-3.019 7.937.011 10.96l20.713 20.671v222.31c0 4.28 3.47 7.75 7.75 7.75s7.75-3.47 7.75-7.75v-222.31l20.713-20.671c3.03-3.023 3.035-7.931.011-10.96-3.024-3.03-7.931-3.034-10.96-.011l-9.764 9.744v-22.965z" fill="#5aa687"/></g></svg>