<svg id="Capa_1" enable-background="new 0 0 512 512" height="40" viewBox="0 0 512 512" width="40" xmlns="http://www.w3.org/2000/svg"><g><g><path d="m256 512c-4.28 0-7.75-3.47-7.75-7.75v-72.816c0-4.28 3.47-7.75 7.75-7.75s7.75 3.47 7.75 7.75v72.816c0 4.28-3.47 7.75-7.75 7.75z" fill="#5aa687"/></g><g><g><path d="m340.794 221.449c-72.601 72.6-84.794 165.886-84.794 165.886s93.286-12.193 165.887-84.794c54.422-54.422 78.336-123.904 86.9-155.287 2.111-7.736-4.97-14.817-12.706-12.706-31.383 8.564-100.865 32.478-155.287 86.901z" fill="#b3e59f"/></g><g><path d="m375.189 340.259c-3.571-30.05-19.485-65.219-47.443-104.83-61.043 70.036-71.746 151.906-71.746 151.906s58.686-7.677 119.189-47.076z" fill="#95d6a4"/></g><g><path d="m331.526 425.94c-33.054-33.053-75.526-38.605-75.526-38.605s5.551 42.472 38.605 75.526c19.736 19.736 43.823 30.66 60.029 36.258 8.162 2.82 15.97-4.988 13.15-13.15-5.598-16.205-16.522-40.292-36.258-60.029z" fill="#66b394"/></g><g><path d="m331.526 425.94c-33.054-33.053-75.526-38.605-75.526-38.605s5.552 42.472 38.605 75.526c.922.923 1.856 1.823 2.796 2.707 16.751-6.179 31.753-15.997 44.049-28.487-3.03-3.809-6.331-7.547-9.924-11.141z" fill="#5aa687"/></g><g><path d="m381.34 346.789c-72.6 0-125.34 40.546-125.34 40.546s52.74 40.546 125.34 40.546c50.364 0 94.112-19.512 116.187-31.465 7.212-3.905 7.212-14.257 0-18.162-22.075-11.953-65.823-31.465-116.187-31.465z" fill="#95d6a4"/></g><g><path d="m351.404 425.612c15.403-20.178 24.566-45.361 24.566-72.648 0-2.003-.067-4.035-.188-6.089-69.717 1.979-119.782 40.46-119.782 40.46s38.688 29.738 95.404 38.277z" fill="#78c2a4"/></g><g><path d="m171.206 221.449c72.6 72.6 84.794 165.887 84.794 165.887s-93.286-12.193-165.887-84.794c-54.422-54.422-78.336-123.904-86.9-155.287-2.111-7.736 4.97-14.817 12.706-12.706 31.383 8.563 100.865 32.477 155.287 86.9z" fill="#b3e59f"/></g><g><path d="m136.811 340.259c3.571-30.05 19.485-65.219 47.443-104.83 61.043 70.036 71.746 151.906 71.746 151.906s-58.686-7.677-119.189-47.076z" fill="#95d6a4"/></g><g><path d="m180.474 425.94c33.054-33.053 75.526-38.605 75.526-38.605s-5.551 42.472-38.605 75.526c-19.736 19.736-43.823 30.66-60.029 36.258-8.162 2.82-15.97-4.988-13.15-13.15 5.598-16.205 16.522-40.292 36.258-60.029z" fill="#66b394"/></g><g><path d="m180.474 425.94c33.054-33.053 75.526-38.605 75.526-38.605s-5.552 42.472-38.605 75.526c-.922.923-1.856 1.823-2.796 2.707-16.751-6.179-31.753-15.997-44.049-28.487 3.03-3.809 6.331-7.547 9.924-11.141z" fill="#5aa687"/></g><g><path d="m130.66 346.789c72.6 0 125.34 40.546 125.34 40.546s-52.74 40.546-125.34 40.546c-50.364 0-94.112-19.512-116.187-31.465-7.212-3.905-7.212-14.257 0-18.162 22.075-11.953 65.823-31.465 116.187-31.465z" fill="#95d6a4"/></g><g><path d="m160.596 425.612c-15.403-20.178-24.566-45.361-24.566-72.648 0-2.003.067-4.035.188-6.089 69.717 1.979 119.782 40.46 119.782 40.46s-38.688 29.738-95.404 38.277z" fill="#78c2a4"/></g><g><path d="m318.633 193.72c0 112.147-62.633 193.615-62.633 193.615s-62.633-81.468-62.633-193.615c0-85.448 36.361-158.569 53.674-188.542 3.988-6.904 13.93-6.904 17.918 0 17.313 29.973 53.674 103.094 53.674 188.542z" fill="#ccf49f"/></g><g><path d="m256 387.335s62.633-81.468 62.633-193.615c0-54.307-14.688-103.635-29.838-140.071 4.931 30.629 7.056 64.702 3.331 100.101-.506 4.81-1.114 9.556-1.812 14.237-1.023 6.859-9.53 9.51-14.311 4.486-2.178-2.289-3.496-3.62-3.719-3.844l-5.922-5.955c-5.714-5.745-15.011-5.745-20.725 0l-5.922 5.955c-.961.967-22.156 22.374-45.092 52.629 8.82 97.697 61.377 166.077 61.377 166.077z" fill="#b3e59f"/></g></g><g><g><path d="m248.419 192.802c4.091-4.422 11.071-4.422 15.162 0 22.839 24.686 89.423 101.672 89.423 160.162 0 53.574-43.43 97.004-97.004 97.004s-97.004-43.43-97.004-97.004c0-58.49 66.584-135.476 89.423-160.162z" fill="#ffe07d"/></g><g><path d="m328.725 279.514c3.427 11.231 5.417 22.262 5.417 32.741 0 57.603-46.696 104.299-104.299 104.299-22.335 0-43.028-7.024-59.997-18.979 16.15 31.125 48.667 52.391 86.154 52.391 53.574 0 97.004-43.43 97.004-97.004 0-23.053-10.346-48.981-24.279-73.448z" fill="#ffd064"/></g></g><g><path d="m299.927 334.097h-27.225v-27.225c0-4.566-3.701-8.267-8.267-8.267h-16.87c-4.566 0-8.267 3.701-8.267 8.267v27.225h-27.225c-4.566 0-8.267 3.701-8.267 8.267v16.87c0 4.566 3.701 8.267 8.267 8.267h27.225v27.225c0 4.566 3.701 8.267 8.267 8.267h16.87c4.566 0 8.267-3.701 8.267-8.267v-27.225h27.225c4.566 0 8.267-3.701 8.267-8.267v-16.87c0-4.565-3.701-8.267-8.267-8.267z" fill="#bed8fb"/></g></g></svg>